PathFileType	4	(X/Y/Z)	Patient4_TMGait_0pt4_02_right_05.trc.trc
DataRate	CameraRate	NumFrames	NumMarkers	Units	OrigDataRate	OrigDataStartFrame	OrigNumFrames
71.428571428571	71.428571428571	4	33	mm	71.428571428571	124	       141
Frame#	Time	Sacral			L.Shoulder			Chest			R.Shoulder			Neck			R.ASIS			L.ASIS			R.Thigh.Superior			R.Thigh.Lateral			R.Thigh.Inferior			R.Patella			L.Thigh.Superior			L.Thigh.Lateral			L.Thigh.Inferior			L.Patella			L.Shank.Superior			L.Shank.Lateral			L.Shank.Inferior			R.Shank.Superior			R.Shank.Lateral			R.Shank.Inferior			R.Heel			R.Midfoot.Superior			R.Midfoot.Lateral			R.Toe			L.Heel			L.Midfoot.Lateral			L.Midfoot.Superior			L.Toe			L.Elbow			L.Wrist			R.Elbow			R.Wrist			
		X1	Y1	Z1	X2	Y2	Z2	X3	Y3	Z3	X4	Y4	Z4	X5	Y5	Z5	X6	Y6	Z6	X7	Y7	Z7	X8	Y8	Z8	X9	Y9	Z9	X10	Y10	Z10	X11	Y11	Z11	X12	Y12	Z12	X13	Y13	Z13	X14	Y14	Z14	X15	Y15	Z15	X16	Y16	Z16	X17	Y17	Z17	X18	Y18	Z18	X19	Y19	Z19	X20	Y20	Z20	X21	Y21	Z21	X22	Y22	Z22	X23	Y23	Z23	X24	Y24	Z24	X25	Y25	Z25	X26	Y26	Z26	X27	Y27	Z27	X28	Y28	Z28	X29	Y29	Z29	X30	Y30	Z30	X31	Y31	Z31	X32	Y32	Z32	X33	Y33	Z33	

124	7.702000000000	845.049002970675	996.321206858045	416.453738334935	1036.098952243448	1425.533313351572	237.037066770860	1113.478309149073	1369.290608891883	415.291812055907	1000.296482802140	1444.648541180771	570.552123936292	992.958062497537	1492.083353682667	387.420768234813	1063.973162251059	943.442800350310	559.762908645146	1076.165809090421	961.505221558262	282.992538487649	1133.493032862380	756.078586692040	539.719711819649	1070.122729408578	636.292089465530	603.884013988248	1162.648680105823	593.266053282050	532.508180471761	1184.489394022994	509.879352369836	545.946818160801	1080.149688389372	733.374442286390	310.071932419326	966.081978584337	635.197329737408	246.047466819587	1027.647844532449	544.230309974143	310.808024142952	1013.308569497264	477.750069977367	319.999698246825	980.787061406391	410.860458999222	312.708744013319	878.307332226060	304.977727823827	265.810629135758	921.323122168388	190.201393410645	338.224826552640	1163.739969795753	421.139426145950	555.713224484818	1101.236714444552	312.634836798720	619.252990941723	1164.133891118710	221.439735135933	569.602453785548	1059.079303300087	45.248431172339	543.836199343250	1226.124686101421	105.024796114930	582.962698337864	1141.927580394890	39.438046704990	618.781813498073	1347.488273029938	59.468791639837	610.944714736100	785.747061516535	39.553472410383	389.362470795844	856.086987898597	35.027803622259	305.812829565459	940.783360389476	95.538565259585	329.049390630338	1068.001480870989	42.009527614965	295.940511204788	1095.556127835636	1086.666802487682	103.360439856789	1338.868321852046	994.995093760208	118.779831890438	879.612726714931	1121.073034358775	682.918441566929	903.070191138844	860.481162414898	700.565850028223	
125	7.716000000000	846.312809738513	995.064410395523	419.177695040986	1034.636961033179	1424.906855309103	239.631228452188	1112.816211028424	1369.171010183194	417.729931526563	999.410162893190	1443.772034808305	573.262720975771	991.728924367083	1491.291653933264	390.136434047346	1066.164299205674	942.468569433764	561.560993977753	1077.120537933050	961.125447501997	284.969220711136	1136.040873370080	754.550626373828	540.224383235600	1071.710224674559	634.826842519575	603.469767055710	1163.842431635159	591.973736794428	531.688192708968	1184.543604669645	507.382955096970	544.184227866807	1080.714678492075	732.362974346517	310.876935460642	965.875999322552	634.772867586112	247.594765622071	1027.372126730997	543.334254003220	311.844388560151	1012.843358397997	476.339432238058	320.977137828128	979.199977150821	409.830490234379	313.688465060475	875.251283659022	305.354816678182	266.740179474690	916.841979215292	189.720510669953	338.581313585818	1162.240921708404	417.997410170881	554.057618166899	1097.760896190366	310.719494403841	618.197770067498	1157.426869700724	217.893529911736	567.346324121754	1047.459987143859	44.101776488372	543.058479541292	1215.773556933290	101.623431518699	580.208801406524	1130.668779295887	38.049984970483	617.628447633490	1336.935556598766	54.430247166253	607.968819288327	780.079080048579	39.693807062599	389.297375024573	850.486763119840	35.024577549242	305.847424724057	935.242720466342	95.509264186701	329.077765167801	1062.469754514390	41.779627784560	295.888200735929	1094.199707772264	1085.562028161014	106.546869851096	1336.528727939962	990.504203686105	120.590281633883	882.287540162337	1118.872027086889	686.352767238566	912.485286591463	858.846638852462	704.189820274491	
126	7.730000000000	847.588045085482	994.005008019259	422.061596641159	1033.184047119479	1424.518061807786	242.402376094579	1112.314302747421	1369.151968648567	420.237974264181	998.882935383114	1442.971752893664	576.190529239273	990.665040994938	1490.688072388606	393.115323229013	1068.445496923546	941.765732104955	563.368800575077	1078.053127778946	960.834387865552	286.988139534398	1138.291053998672	753.105630800901	540.564188418000	1073.227543567864	633.746548301923	603.329601312602	1164.570350437583	590.847328067884	530.767911682434	1184.214254012083	505.228099703993	542.593069698446	1081.595360630219	731.516786930869	311.866027770664	966.168511093596	634.300823709201	249.349325913365	1027.799641544434	542.455623894675	313.058994656359	1013.163277879963	474.804123881165	322.059309676126	978.196899144837	408.713996255033	314.798960362324	872.587226905370	305.845973764388	267.824939659746	912.561547458137	189.257456074736	338.998852619767	1160.707382286785	415.392127378733	552.771406458658	1094.881977697164	309.156436254806	617.675031810838	1151.614800805611	215.039474053095	565.567571995958	1037.558236266377	43.202997582212	542.786532210454	1206.829707774214	99.227911794593	578.056522945410	1121.165574822666	37.161211133893	616.942845289020	1327.941848455201	50.900075200073	605.491290941386	774.394477975841	40.019698573854	389.228220633623	844.893127530760	35.081842358850	305.893702862900	929.775396869124	95.506532538277	329.086873100506	1056.973711777088	41.484614803495	295.815119924460	1092.468681052717	1084.611457276282	109.903459702224	1333.419273712661	985.186471586475	122.321014613454	885.565075716828	1116.682325456411	690.039763399293	922.734982857223	857.406784557186	708.164425858520	
127	7.744000000000	848.855146111558	993.191469663385	425.079543697609	1031.777697831875	1424.415500174081	245.321703976554	1111.973436302016	1369.268962340717	422.794141409041	998.716712576609	1442.304858578693	579.297069497261	989.774713741301	1490.318866515540	396.317113118470	1070.734034515972	941.386720764073	565.224503665667	1078.976163047032	960.679730862507	289.061889328909	1140.195037724923	751.858378128659	540.827325713521	1074.676073138371	633.094828491617	603.553893255127	1164.874199679187	589.956822178969	529.900758220652	1183.536373240264	503.480137694617	541.376310866932	1082.773558348437	730.902326089338	313.110867798158	966.981241950108	633.808900041102	251.302365460189	1028.976340290674	541.631027720298	314.442023118367	1014.317932696399	473.177207012633	323.182931087773	977.806993221018	407.557605288578	315.990181101025	870.336861497873	306.520219228679	269.047608910335	908.526971293351	188.883524671191	339.436021285140	1159.145264847003	413.366497489016	551.954381245060	1092.517084703747	307.970125926317	617.669539246419	1146.665478971985	212.901439937557	564.313721876579	1029.337263018826	42.575337936048	542.880656066383	1199.260163127146	97.756274386814	576.555020530471	1113.315545283179	36.702266481230	616.652875250444	1320.420198639971	48.719008797850	603.644228832342	768.715341281247	40.654635431851	389.148728332685	839.317912774427	35.254796081296	305.945408508335	924.425144620717	95.552490810595	329.046097890172	1051.511198876870	41.125405580499	295.721156651137	1090.369736108052	1083.860784942217	113.434988594337	1329.465010585767	979.078355503961	123.973856438970	889.473157163090	1114.572805612196	693.962007004501	933.811896196444	856.261826724441	712.456531219027	
